# xmcd
#
# Track frame offsets: 
#        150
#        16291
#        35236
#        52960
#        64102
#        73184
#        91967
#        101601
#        114582
#        133398
#        163651
#        180290
#        193470
#        212388
#        230206
#
# Disc length: 3256 seconds
#
# Revision: 4
# Processed by: cddbd v1.5.2PL0 Copyright (c) Steve Scherf et al.
# Submitted via: ExactAudioCopyFreeDBPlugin 1.0
#
DISCID=dd0cb60f
DTITLE=Various Artist - Primadonnas Vol. 2: Destinn, Schumann-Heink (GVO1)
DYEAR=2003
DGENRE=Oper
TTITLE0=Emmy Destinn (1878-1930) - Zauberflöte - Ach ich fühl's
TTITLE1=Emmy Destinn (1878-1930) - Le nozze di Figaro - Dove sono
TTITLE2=Emmy Destinn (1878-1930) - Fliegender Holländer - Joho, hoe!
TTITLE3=Emmy Destinn (1878-1930) - Carmen - En vain pour eviter
TTITLE4=Emmy Destinn (1878-1930) - Salomé - Dein Haar ist gräßlich
TTITLE5=Emmy Destinn (1878-1930) - Hubicka - A ted'me robe
TTITLE6=Emmy Destinn (1878-1930) - Pagliacci - Stridono lassú
TTITLE7=Ernestine Schumann-Heink (1861-1936) - Lucrezia Borgia - Brind
TTITLE7=isi
TTITLE8=Ernestine Schumann-Heink (1861-1936) - Le Prophète - Ah, mon f
TTITLE8=ils!
TTITLE9=Ernestine Schumann-Heink (1861-1936) - Le Prophète - O pretres
TTITLE9=de Baal
TTITLE10=Ernestine Schumann-Heink (1861-1936) - Schubert - Der Erlköni
TTITLE10=g
TTITLE11=Ernestine Schumann-Heink (1861-1936) - Böhm - Still wie die N
TTITLE11=acht
TTITLE12=Ernestine Schumann-Heink (1861-1936) - Wagner - Träume
TTITLE13=Ernestine Schumann-Heink (1861-1936) - Arditi - Leggero invis
TTITLE13=ibile
TTITLE14=Ernestine Schumann-Heink (1861-1936) - Becker - Frühlingszeit
EXTD=
EXTT0=
EXTT1=
EXTT2=
EXTT3=
EXTT4=
EXTT5=
EXTT6=
EXTT7=
EXTT8=
EXTT9=
EXTT10=
EXTT11=
EXTT12=
EXTT13=
EXTT14=
PLAYORDER=
